<svg id="icon" xmlns="http://www.w3.org/2000/svg" viewBox="0 0 512 512"><defs><style>.cls-1{fill:#fcd8c0;}.cls-2{fill:#ef9e86;}.cls-3{fill:#aabc80;}.cls-4{fill:#c7dba2;}.cls-5{fill:#e0edc3;}.cls-6{fill:#4d4d4d;}</style></defs><title>pay cash</title><path class="cls-1" d="M143.64,103,253,32.8a35.59,35.59,0,0,1,30.24-3.88L381,60.76h79.48V167.87H412.37s-15.95,30.86-53.54,30.86H143.64Z"/><path class="cls-2" d="M405.28,137.77,243.77,91.86h76.77v-2A12.5,12.5,0,0,0,308,77.32H183.62l-40,25.65v95.76H358.83a60.85,60.85,0,0,0,25.81-5.54C405,170.43,405.28,137.77,405.28,137.77Z"/><path class="cls-3" d="M51.55,105.49v146.2A14.11,14.11,0,0,0,65.66,265.8H359.75a14.11,14.11,0,0,0,14.11-14.11V91.38H65.66A14.11,14.11,0,0,0,51.55,105.49Z"/><path class="cls-4" d="M51.55,105.49v67.77a65.16,65.16,0,0,0,86.13-81.88h-72A14.11,14.11,0,0,0,51.55,105.49Z"/><path class="cls-4" d="M346.61,213.79a24.76,24.76,0,0,0-24.76,24.76H103.56a24.76,24.76,0,0,0-24.75-24.76v-70.4a24.75,24.75,0,0,0,24.75-24.75H321.85a24.75,24.75,0,0,0,24.76,24.75Z"/><path class="cls-1" d="M399.62,138.39c-12.6,24.08-43,24.7-43,24.7-40.74,0-52.23-29.88-52.23-29.88H250.89A20.91,20.91,0,0,1,230,112.3h0a20.92,20.92,0,0,1,20.91-20.92H314.8l60.61-9.21a22,22,0,0,1,25.32,22.51Z"/><path class="cls-1" d="M52,484.85l63.89-94.43a87.34,87.34,0,0,1,81.76-38,134.23,134.23,0,0,1,30,6.64,53.6,53.6,0,0,0,17.81,3.13h58.1a22.49,22.49,0,0,1,22.49,22.49h0l56.18-60.73a21.17,21.17,0,0,1,28.71-2.2h0a21.18,21.18,0,0,1,3.23,30l-62.76,76.74a34.51,34.51,0,0,1-21.78,12.32L208.21,458.35a34.76,34.76,0,0,0-25.42,17.57l-4.94,8.93Z"/><path class="cls-2" d="M304.57,410.23H238.18l-22,17.73v3.88l8.59-.11a23.64,23.64,0,0,0,15.44-6l.71-.63a16.82,16.82,0,0,1,11.26-4.31h58.36A25.12,25.12,0,0,0,334,405.37c2.54-6.31,2.86-14.65-2.58-25.19l-.83-.41-4.52,4.89C325.83,403.54,304.57,410.23,304.57,410.23Z"/><path class="cls-5" d="M141.09,118.64H103.56a24.75,24.75,0,0,1-24.75,24.75V178A65.13,65.13,0,0,0,141.09,118.64Z"/><path class="cls-6" d="M460.45,55.06H381.88L285,23.5A41.13,41.13,0,0,0,249.92,28L191.55,65.46a5.7,5.7,0,1,0,6.16,9.59L256.07,37.6a29.75,29.75,0,0,1,25.4-3.26l97.74,31.84a5.84,5.84,0,0,0,1.76.28h73.78v95.71H412.37a5.7,5.7,0,0,0-5.06,3.08,57.27,57.27,0,0,1-27.75,23.93V163.53c9.13-3.9,18.92-10.68,25.1-22.49a5.7,5.7,0,1,0-10.09-5.29c-10.84,20.71-37.78,21.63-37.92,21.64-36.08,0-46.49-25.18-46.91-26.23a5.69,5.69,0,0,0-5.32-3.65H250.89a15.22,15.22,0,1,1,0-30.43H314.8a5.7,5.7,0,0,0,0-11.4H250.89a26.62,26.62,0,0,0,0,53.23h50c4.76,8.73,20,29.88,55.91,29.88a62.35,62.35,0,0,0,11.39-1.59v84.49a8.42,8.42,0,0,1-8.41,8.41H65.66a8.42,8.42,0,0,1-8.41-8.41V105.49a8.42,8.42,0,0,1,8.41-8.41H211a5.7,5.7,0,0,0,0-11.4H65.66a19.84,19.84,0,0,0-19.81,19.81v146.2A19.83,19.83,0,0,0,65.66,271.5H359.75a19.83,19.83,0,0,0,19.81-19.81V201.26c20.43-6.51,31.87-21.24,36-27.69h44.85a5.7,5.7,0,0,0,5.7-5.7V60.76A5.7,5.7,0,0,0,460.45,55.06Z"/><path class="cls-6" d="M84.51,208.63V148.56a30.53,30.53,0,0,0,24.21-24.22H206a5.7,5.7,0,1,0,0-11.4H103.56a5.7,5.7,0,0,0-5.7,5.7,19.08,19.08,0,0,1-19,19,5.7,5.7,0,0,0-5.7,5.7v70.4a5.7,5.7,0,0,0,5.7,5.7,19.08,19.08,0,0,1,19,19.06,5.7,5.7,0,0,0,5.7,5.7H321.85a5.7,5.7,0,0,0,5.7-5.7,19.08,19.08,0,0,1,19.06-19.06,5.7,5.7,0,0,0,5.69-5.7V188a5.7,5.7,0,1,0-11.39,0v20.6a30.53,30.53,0,0,0-24.22,24.22h-208A30.52,30.52,0,0,0,84.51,208.63Z"/><path class="cls-6" d="M205.22,159.84h13.71a5.7,5.7,0,1,0,0-11.4h-4.48v-3.67a5.7,5.7,0,0,0-11.4,0v3.81a17.92,17.92,0,0,0,2.17,35.71h7.07a6.53,6.53,0,0,1,0,13.06H198.58a5.7,5.7,0,1,0,0,11.39h4.47v3.67a5.7,5.7,0,0,0,11.4,0V208.6a17.92,17.92,0,0,0-2.16-35.71h-7.07a6.53,6.53,0,1,1,0-13Z"/><path class="cls-6" d="M145.92,174.57a5.7,5.7,0,0,0-1.67,4,6,6,0,0,0,.11,1.13,5.56,5.56,0,0,0,.33,1,4.55,4.55,0,0,0,.53,1,5.26,5.26,0,0,0,.7.86,4.91,4.91,0,0,0,.87.71,6.18,6.18,0,0,0,1,.53,6.3,6.3,0,0,0,1.07.32,5.21,5.21,0,0,0,1.11.1,5.71,5.71,0,0,0,4-1.66,5.9,5.9,0,0,0,.71-.86,7.28,7.28,0,0,0,.53-1,6.33,6.33,0,0,0,.31-1,4.72,4.72,0,0,0,.12-1.13,5.7,5.7,0,0,0-9.73-4Z"/><path class="cls-6" d="M270.72,181.76a6.49,6.49,0,0,0,.71.86,5.67,5.67,0,0,0,8.76-.86,4.55,4.55,0,0,0,.53-1,5.56,5.56,0,0,0,.33-1,6,6,0,0,0,.11-1.11,5.7,5.7,0,0,0-11.4,0,6,6,0,0,0,.12,1.11,5.53,5.53,0,0,0,.32,1A6.29,6.29,0,0,0,270.72,181.76Z"/><path class="cls-6" d="M414.52,317.26a27,27,0,0,0-36.43,2.8l-36,39a5.7,5.7,0,0,0,8.37,7.74l36-39a15.48,15.48,0,0,1,26.74,8.85,15.34,15.34,0,0,1-3.41,11.46L347,424.85a28.8,28.8,0,0,1-18.19,10.28L207.4,452.71a40.66,40.66,0,0,0-29.59,20.45l-3.32,6H62.76l57.87-85.54a81.45,81.45,0,0,1,76.42-35.55,129.29,129.29,0,0,1,28.75,6.35,59.15,59.15,0,0,0,19.7,3.46h58.1a16.82,16.82,0,0,1,16.79,16.79,18.15,18.15,0,0,1-18.13,18.13H249a37.31,37.31,0,0,0-23.79,8.59l-12.5,10.37a5.7,5.7,0,0,0,3.65,10.09,5.62,5.62,0,0,0,3.63-1.32l12.5-10.37a25.93,25.93,0,0,1,16.51-6h53.26a29.57,29.57,0,0,0,29.53-29.53,28.23,28.23,0,0,0-28.19-28.19H245.5a47.82,47.82,0,0,1-15.92-2.81,140.69,140.69,0,0,0-31.29-6.93,92.83,92.83,0,0,0-87.1,40.49L47.3,481.65A5.69,5.69,0,0,0,52,490.54H177.85a5.68,5.68,0,0,0,5-2.94l4.94-8.92A29.23,29.23,0,0,1,209,464l121.46-17.58a40.12,40.12,0,0,0,25.37-14.35l62.76-76.74a26.88,26.88,0,0,0-4.1-38.06Z"/></svg>